<svg width="24" height="25" viewBox="0 0 24 25" fill="none" xmlns="http://www.w3.org/2000/svg">
<circle cx="12" cy="12.5002" r="12" fill="#DC5757"/>
<path d="M6.66699 11.4973V14.5C6.66699 15.0304 6.87771 15.5391 7.25278 15.9142C7.62785 16.2893 8.13656 16.5 8.66699 16.5H15.3337C15.8641 16.5 16.3728 16.2893 16.7479 15.9142C17.1229 15.5391 17.3337 15.0304 17.3337 14.5V11.4973L12.2737 13.7747C12.1877 13.8133 12.0946 13.8333 12.0003 13.8333C11.9061 13.8333 11.8129 13.8133 11.727 13.7747L6.66699 11.4973ZM6.71633 10.0573L12.0003 12.436L17.2843 10.0573C17.1839 9.61503 16.9362 9.21999 16.5818 8.93701C16.2273 8.65404 15.7872 8.49994 15.3337 8.5H8.66699C8.21344 8.49994 7.77334 8.65404 7.4189 8.93701C7.06445 9.21999 6.81671 9.61503 6.71633 10.0573Z" fill="#F7F8F9"/>
</svg>
