<svg width="24" height="24" viewBox="0 0 24 24" fill="none" xmlns="http://www.w3.org/2000/svg">
<g clip-path="url(#clip0_319_334)">
<path d="M12.0005 0.480225C5.63807 0.480225 0.480469 5.63783 0.480469 12.0002C0.480469 18.3626 5.63807 23.5202 12.0005 23.5202C18.3629 23.5202 23.5205 18.3626 23.5205 12.0002C23.5205 5.63783 18.3629 0.480225 12.0005 0.480225ZM14.7293 8.44102H12.9977C12.7925 8.44102 12.5645 8.71103 12.5645 9.06983V10.3202H14.7305L14.4029 12.1034H12.5645V17.4566H10.5209V12.1034H8.66687V10.3202H10.5209V9.27142C10.5209 7.76662 11.5649 6.54382 12.9977 6.54382H14.7293V8.44102Z" fill="#365FF1"/>
</g>
<defs>
<clipPath id="clip0_319_334">
<rect width="24" height="24" fill="white" transform="translate(0 0.000244141)"/>
</clipPath>
</defs>
</svg>
