<svg width="50" height="50" viewBox="0 0 50 50" fill="none" xmlns="http://www.w3.org/2000/svg">
<path d="M25.0009 49.4833L17.7426 42.3333H7.66758V32.2583L0.517578 24.9999L7.66758 17.7416V7.6666H17.7426L25.0009 0.516602L32.2592 7.6666H42.3342V17.7416L49.4842 24.9999L42.3342 32.2583V42.3333H32.2592L25.0009 49.4833ZM25.0009 43.4166L30.4176 37.9999H38.0009V30.4166L43.4176 24.9999L38.0009 19.5833V11.9999H30.4176L25.0009 6.58327L19.5842 11.9999H12.0009V19.5833L6.58424 24.9999L12.0009 30.4166V37.9999H19.5842L25.0009 43.4166ZM18.6634 34.2083L25.0009 30.3624L31.3384 34.2083L29.6592 27.0041L35.2926 22.1291L27.8717 21.5333L25.0009 14.7083L22.1301 21.5333L14.7092 22.1291L20.3426 27.0041L18.6634 34.2083Z" fill="#D57070"/>
</svg>
