<svg width="24" height="24" viewBox="0 0 24 24" fill="none" xmlns="http://www.w3.org/2000/svg">
<g clip-path="url(#clip0_319_332)">
<path d="M12.0005 0.480225C5.63807 0.480225 0.480469 5.63782 0.480469 12.0002C0.480469 18.3626 5.63807 23.5202 12.0005 23.5202C18.3629 23.5202 23.5205 18.3626 23.5205 12.0002C23.5205 5.63782 18.3629 0.480225 12.0005 0.480225ZM9.18047 16.775H6.84767V9.26783H9.18047V16.775ZM7.99967 8.34622C7.26287 8.34622 6.78647 7.82422 6.78647 7.17862C6.78647 6.51982 7.27727 6.01342 8.02967 6.01342C8.78207 6.01342 9.24287 6.51982 9.25727 7.17862C9.25727 7.82422 8.78207 8.34622 7.99967 8.34622ZM17.7005 16.775H15.3677V12.6146C15.3677 11.6462 15.0293 10.9886 14.1857 10.9886C13.5413 10.9886 13.1585 11.4338 12.9893 11.8622C12.9269 12.0146 12.9113 12.2306 12.9113 12.4454V16.7738H10.5773V11.6618C10.5773 10.7246 10.5473 9.94103 10.5161 9.26663H12.5429L12.6497 10.3094H12.6965C13.0037 9.81983 13.7561 9.09742 15.0149 9.09742C16.5497 9.09742 17.7005 10.1258 17.7005 12.3362V16.775Z" fill="#1E70EB"/>
</g>
<defs>
<clipPath id="clip0_319_332">
<rect width="24" height="24" fill="white" transform="translate(0 0.000244141)"/>
</clipPath>
</defs>
</svg>
