<svg width="22" height="22" viewBox="0 0 22 22" fill="none" xmlns="http://www.w3.org/2000/svg">
<path d="M11 0.500244C5.20156 0.500244 0.5 5.20181 0.5 11.0002C0.5 16.7987 5.20156 21.5002 11 21.5002C16.7984 21.5002 21.5 16.7987 21.5 11.0002C21.5 5.20181 16.7984 0.500244 11 0.500244ZM17 6.44634L16.0438 7.36274C15.9594 7.42602 15.9195 7.52915 15.9359 7.62993V14.3729C15.9195 14.476 15.9594 14.5792 16.0438 14.6401L16.9813 15.5565V15.7604H12.275V15.5659L13.243 14.626C13.3391 14.5299 13.3391 14.5018 13.3391 14.3588V8.90259L10.6437 15.737H10.2805L7.14453 8.90259V13.4846C7.11641 13.6768 7.18437 13.8713 7.32031 14.0096L8.58125 15.5354V15.7393H5V15.5354L6.26094 14.0096C6.32737 13.941 6.37681 13.8578 6.4053 13.7666C6.43379 13.6754 6.44054 13.5789 6.425 13.4846V8.18774C6.44141 8.04009 6.38516 7.89712 6.27266 7.79634L5.15234 6.44634V6.24243H8.63281L11.3187 12.137L13.6836 6.24712H17V6.44634Z" fill="#F7F8F9"/>
</svg>
