<svg width="24" height="24" viewBox="0 0 24 24" fill="none" xmlns="http://www.w3.org/2000/svg">
<path d="M12 1.50024C6.20156 1.50024 1.5 6.20181 1.5 12.0002C1.5 17.7987 6.20156 22.5002 12 22.5002C17.7984 22.5002 22.5 17.7987 22.5 12.0002C22.5 6.20181 17.7984 1.50024 12 1.50024ZM17.0461 9.41509C17.0531 9.52524 17.0531 9.64009 17.0531 9.75259C17.0531 13.1932 14.4328 17.1565 9.64453 17.1565C8.16797 17.1565 6.79922 16.7276 5.64609 15.9893C5.85703 16.0127 6.05859 16.0221 6.27422 16.0221C7.49297 16.0221 8.61328 15.6096 9.50625 14.9112C8.3625 14.8877 7.40156 14.1377 7.07344 13.1065C7.47422 13.1651 7.83516 13.1651 8.24766 13.0596C7.65873 12.94 7.12939 12.6201 6.74957 12.1544C6.36974 11.6887 6.16286 11.1059 6.16406 10.5049V10.4721C6.50859 10.6666 6.91406 10.7862 7.33828 10.8026C6.98166 10.5649 6.6892 10.2429 6.48682 9.86516C6.28445 9.48739 6.17841 9.06552 6.17813 8.63696C6.17813 8.15181 6.30469 7.70884 6.53203 7.32446C7.18571 8.12916 8.0014 8.7873 8.92609 9.2561C9.85078 9.72491 10.8638 9.99389 11.8992 10.0456C11.5312 8.27603 12.8531 6.84399 14.4422 6.84399C15.1922 6.84399 15.8672 7.15806 16.343 7.66431C16.9312 7.55415 17.4937 7.33384 17.9953 7.03853C17.8008 7.64087 17.393 8.14946 16.8516 8.47056C17.3766 8.41431 17.8828 8.26899 18.3516 8.06509C17.9977 8.5854 17.5547 9.04712 17.0461 9.41509Z" fill="#5A94EB"/>
</svg>
